<svg width="198" height="273" viewBox="0 0 198 273" fill="none" xmlns="http://www.w3.org/2000/svg">
<path d="M62.0137 270.26L65.7037 174.16" stroke="#179B60" stroke-width="4" stroke-miterlimit="10" stroke-linecap="round"/>
<path d="M67.8633 270.26L72.7933 149.2" stroke="#179B60" stroke-width="4" stroke-miterlimit="10" stroke-linecap="round"/>
<path d="M136.244 270.26L131.004 150.44" stroke="#179B60" stroke-width="4" stroke-miterlimit="10" stroke-linecap="round"/>
<path d="M141.483 270.26L137.783 174.16" stroke="#179B60" stroke-width="4" stroke-miterlimit="10" stroke-linecap="round"/>
<path d="M129.943 100.3H72.9434C70.4581 100.3 68.4434 102.315 68.4434 104.8V155.3C68.4434 157.785 70.4581 159.8 72.9434 159.8H129.943C132.429 159.8 134.443 157.785 134.443 155.3V104.8C134.443 102.315 132.429 100.3 129.943 100.3Z" fill="#92E3A9" stroke="#179B60" stroke-miterlimit="10" stroke-linecap="round"/>
<path d="M141.812 178.8H64.2324C63.2379 178.8 62.284 178.405 61.5808 177.702C60.8775 176.998 60.4824 176.044 60.4824 175.05C60.4824 174.055 60.8775 173.102 61.5808 172.398C62.284 171.695 63.2379 171.3 64.2324 171.3H141.812C142.807 171.3 143.761 171.695 144.464 172.398C145.167 173.102 145.562 174.055 145.562 175.05C145.562 176.044 145.167 176.998 144.464 177.702C143.761 178.405 142.807 178.8 141.812 178.8Z" fill="#92E3A9" stroke="#179B60" stroke-miterlimit="10" stroke-linecap="round"/>
<path d="M74.0533 135.3C74.0533 135.3 69.0533 144.53 67.1933 147.7C65.3333 150.87 63.4933 162.7 65.8733 166.17C68.2533 169.64 70.0933 170.92 72.2033 171.71C74.3133 172.5 129.463 171.71 129.463 171.71C129.463 171.71 135.533 163.27 136.063 159.31C136.593 155.35 135.003 145.85 133.423 142.69C131.843 139.53 127.353 134.24 127.353 134.24L74.0533 135.3Z" fill="#263238" stroke="#263238" stroke-miterlimit="10" stroke-linecap="round"/>
<path d="M150.573 92.2999L172.213 60.6299C172.213 60.6299 174.053 52.4599 174.323 50.0799C174.593 47.6999 175.903 46.3899 177.753 45.0799C179.671 43.7837 181.439 42.2778 183.023 40.5899C184.083 39.2699 184.873 40.8599 184.343 42.6999C183.813 44.5399 181.973 45.3399 181.183 45.8699C180.393 46.3999 179.863 48.5099 179.863 48.5099C179.863 48.5099 189.093 45.0799 190.943 44.0199C192.793 42.9599 196.743 37.1599 197.013 40.0199C197.283 42.8799 193.583 51.8999 192.793 52.4299C192.003 52.9599 178.013 62.9799 178.013 62.9799C178.013 62.9799 162.713 103.88 161.123 107.31C159.533 110.74 157.433 113.38 156.643 113.38C155.853 113.38 140.283 103.38 140.283 103.38L150.283 91.2399L150.573 92.2999Z" fill="#FFBE9D" stroke="#179B60" stroke-miterlimit="10" stroke-linecap="round"/>
<path d="M47.4531 92.2999L25.8131 60.6299C25.8131 60.6299 23.9731 52.4599 23.7031 50.0799C23.4331 47.6999 22.1231 46.3899 20.2731 45.0799C18.3521 43.7837 16.5812 42.2777 14.9931 40.5899C13.9431 39.2699 13.1531 40.8599 13.6831 42.6999C14.2131 44.5399 16.0531 45.3399 16.8431 45.8699C17.6331 46.3999 18.1631 48.5099 18.1631 48.5099C18.1631 48.5099 8.9331 45.0799 7.0831 44.0199C5.2331 42.9599 1.27309 37.1599 1.01309 40.0199C0.753091 42.8799 4.44309 51.8999 5.23309 52.4299C6.02309 52.9599 20.0131 62.9799 20.0131 62.9799C20.0131 62.9799 35.3131 103.88 36.8931 107.31C38.4731 110.74 40.5931 113.38 41.3831 113.38C42.1731 113.38 57.7431 103.38 57.7431 103.38L47.7431 91.2399L47.4531 92.2999Z" fill="#FFBE9D" stroke="#179B60" stroke-miterlimit="10" stroke-linecap="round"/>
<path d="M91.4531 56.89L68.2331 63.22L47.4531 91.46L56.9531 108.87L71.7231 96.21L75.1531 128.92L72.7831 137.92C72.7831 137.92 71.9931 138.71 86.7831 141.61C101.573 144.51 105.783 143.46 113.173 142.4C120.563 141.34 130.063 137.92 130.063 137.92L127.423 126.57L131.903 98.07L143.783 111L151.963 90.68L134.813 63.24L109.213 56.91L91.4531 56.89Z" fill="#179B60" stroke="#179B60" stroke-miterlimit="10" stroke-linecap="round"/>
<path d="M85.6336 24.3499C85.6336 24.3499 82.6336 19.8699 81.0736 24.4299C79.5136 28.9899 86.1436 34.5899 86.1436 34.5899L86.5936 25.0399" fill="#FFBE9D"/>
<path d="M85.6336 24.3499C85.6336 24.3499 82.6336 19.8699 81.0736 24.4299C79.5136 28.9899 86.1436 34.5899 86.1436 34.5899L86.5936 25.0399" stroke="#179B60" stroke-miterlimit="10" stroke-linecap="round"/>
<path d="M93.5732 53.1999L91.2032 55.2999L88.0332 60.5699L88.8332 79.3099L103.343 69.5499L116.003 79.2999C116.003 79.2999 114.163 57.9299 114.163 56.6099C114.163 55.2899 111.253 53.1799 109.413 52.1199C107.573 51.0599 93.5732 53.1999 93.5732 53.1999Z" fill="#FFBE9D" stroke="#179B60" stroke-miterlimit="10" stroke-linecap="round"/>
<path d="M92.7832 50.2999C92.7832 50.2999 93.0532 57.1599 93.3132 58.4799C93.5732 59.7999 103.313 73.4799 103.313 73.4799L110.173 57.3899L110.703 41.8199L92.7832 50.2999Z" fill="#FFBE9D" stroke="#179B60" stroke-miterlimit="10" stroke-linecap="round"/>
<path d="M93.0832 56.11C94.4368 56.2689 95.8079 56.1877 97.1332 55.87C103.983 54.32 107.733 47.92 107.733 47.92L99.6132 47.08L92.7832 50.3C92.7832 50.3 92.9132 53.64 93.0832 56.11Z" fill="#179B60" stroke="#179B60" stroke-miterlimit="10" stroke-linecap="round"/>
<path d="M84.7422 16.4699C84.7422 16.4699 85.6822 40.9199 86.3522 43.4699C87.0222 46.0199 92.3522 54.3099 98.3522 53.6599C104.352 53.0099 110.452 48.2999 111.042 44.3999C111.632 40.4999 113.212 28.9899 114.212 24.3399C115.212 19.6899 119.212 14.7099 110.582 10.1399C101.952 5.56993 84.8522 8.99993 84.7422 16.4699Z" fill="#FFBE9D"/>
<path d="M90.7528 29.0599C90.6928 30.0599 90.1828 30.9099 89.5928 30.8799C89.0028 30.8499 88.5928 29.9799 88.6428 28.9499C88.6928 27.9199 89.2228 27.0999 89.8128 27.1299C90.4028 27.1599 90.8128 28.0299 90.7528 29.0599Z" fill="#179B60"/>
<path d="M100.563 31.2999C100.503 32.2999 99.9833 33.1499 99.4033 33.1099C98.8233 33.0699 98.4033 32.2099 98.4533 31.1799C98.5033 30.1499 99.0333 29.3299 99.6133 29.3599C100.193 29.3899 100.623 30.2199 100.563 31.2999Z" fill="#179B60"/>
<path d="M92.9437 27.11C92.7264 29.3904 92.3657 31.6549 91.8638 33.89C91.2338 36.19 89.0237 36.65 90.3837 38.2C91.7437 39.75 94.1738 39.6 96.6438 39.2" stroke="#179B60" stroke-miterlimit="10" stroke-linecap="round"/>
<path d="M90.1523 41.36C90.1523 41.36 93.4723 44.03 100.392 42.45" stroke="#179B60" stroke-miterlimit="10" stroke-linecap="round"/>
<path d="M87.7129 24.6799C87.7129 24.6799 90.9129 23.0499 91.9229 25.0799" stroke="#179B60" stroke-miterlimit="10" stroke-linecap="round"/>
<path d="M97.0938 26.17C97.0938 26.17 101.034 24.92 104.094 29.17" stroke="#179B60" stroke-miterlimit="10" stroke-linecap="round"/>
<path d="M109.322 19.82C109.322 19.82 96.1522 22.01 89.9422 20.76C83.7322 19.51 78.1722 14.09 81.0422 9.46998C83.9122 4.84998 100.442 -0.0200143 106.952 1.00999C113.462 2.03999 119.822 4.11997 120.092 10.84C120.362 17.56 117.522 30.47 117.522 30.47L115.452 31.74C115.452 31.74 112.632 27.56 111.332 27.35C110.032 27.14 106.152 24.66 109.322 19.82Z" fill="black"/>
<path d="M112.062 31.21C112.062 31.21 118.062 25.48 119.842 27.63C121.622 29.78 119.602 35.87 115.942 38.77C112.282 41.67 110.822 39.03 110.822 39.03" fill="#FFBE9D"/>
<path d="M112.062 31.21C112.062 31.21 118.062 25.48 119.842 27.63C121.622 29.78 119.602 35.87 115.942 38.77C112.282 41.67 110.822 39.03 110.822 39.03" stroke="#179B60" stroke-miterlimit="10" stroke-linecap="round"/>
<path d="M100.584 254.53C100.584 254.53 92.1839 156.08 88.4539 149.08C84.7239 142.08 74.8039 138.84 65.6239 146.5C56.4439 154.16 62.2939 168.09 64.2739 178.24C66.2539 188.39 81.1038 248.87 81.1038 248.87L100.584 254.53Z" fill="#263238" stroke="#263238" stroke-miterlimit="10" stroke-linecap="round"/>
<path d="M81.104 248.87L78.034 257.3C78.034 257.3 65.454 267.3 65.954 268.87C66.0387 269.11 66.099 269.358 66.134 269.61C66.2058 270.179 66.4796 270.703 66.9055 271.086C67.3314 271.47 67.8809 271.688 68.454 271.7H103.724C104.01 268.707 104.01 265.693 103.724 262.7C103.214 259.1 100.724 254.12 100.724 254.12L81.104 248.87Z" fill="#455A64"/>
<path d="M103.934 268.36H66.074C65.9723 268.509 65.9295 268.691 65.954 268.87C66.0388 269.11 66.0991 269.358 66.134 269.61C66.2058 270.179 66.4796 270.702 66.9055 271.086C67.3314 271.47 67.8809 271.688 68.454 271.7H103.724C103.724 271.7 103.874 270.3 103.934 268.36Z" fill="#FFBE9D" stroke="#179B60" stroke-miterlimit="10" stroke-linecap="round"/>
<path d="M109.062 255.02C109.062 255.02 112.193 156.38 115.613 149.23C119.033 142.08 128.812 138.41 138.312 145.66C147.812 152.91 142.573 167.09 141.033 177.31C139.493 187.53 128.453 249.3 128.453 249.3L109.062 255.02Z" fill="#263238"/>
<path d="M128.454 249.3L131.454 257.3C131.454 257.3 144.044 267.3 143.534 268.87C143.453 269.111 143.393 269.359 143.354 269.61C143.281 270.18 143.006 270.706 142.578 271.089C142.15 271.473 141.598 271.69 141.024 271.7H105.744C105.458 268.707 105.458 265.693 105.744 262.7C106.254 259.1 108.744 254.12 108.744 254.12L128.454 249.3Z" fill="#455A64"/>
<path d="M105.543 268.36H143.453C143.555 268.509 143.597 268.691 143.573 268.87C143.493 269.111 143.433 269.359 143.393 269.61C143.321 270.18 143.046 270.705 142.618 271.089C142.19 271.473 141.638 271.69 141.063 271.7H105.743C105.743 271.7 105.603 270.3 105.543 268.36Z" fill="#FFBE9D" stroke="#179B60" stroke-miterlimit="10" stroke-linecap="round"/>
</svg>
