<svg width="61" height="84" viewBox="0 0 61 84" fill="none" xmlns="http://www.w3.org/2000/svg">
<g filter="url(#filter0_d_4030_752)">
<rect x="8" y="2" width="45" height="68" rx="6" fill="white" shape-rendering="crispEdges"/>
<rect x="8.5" y="2.5" width="44" height="67" rx="5.5" stroke="#F4F6F8" shape-rendering="crispEdges"/>
<path d="M22.7493 22.168C21.9559 22.168 21.2559 21.9767 20.6493 21.594C20.0426 21.202 19.5666 20.6513 19.2213 19.942C18.8853 19.2233 18.7173 18.3693 18.7173 17.38C18.7173 16.3907 18.8853 15.546 19.2213 14.846C19.5666 14.146 20.0426 13.6093 20.6493 13.236C21.2559 12.8627 21.9559 12.676 22.7493 12.676C23.5519 12.676 24.2566 12.8627 24.8633 13.236C25.4699 13.6093 25.9413 14.146 26.2773 14.846C26.6226 15.546 26.7953 16.3907 26.7953 17.38C26.7953 18.3693 26.6226 19.2233 26.2773 19.942C25.9413 20.6513 25.4699 21.202 24.8633 21.594C24.2566 21.9767 23.5519 22.168 22.7493 22.168ZM22.7493 20.754C23.4679 20.754 24.0419 20.4507 24.4713 19.844C24.9006 19.228 25.1153 18.4067 25.1153 17.38C25.1153 16.3533 24.9006 15.5507 24.4713 14.972C24.0419 14.384 23.4679 14.09 22.7493 14.09C22.0306 14.09 21.4566 14.384 21.0273 14.972C20.5979 15.5507 20.3833 16.3533 20.3833 17.38C20.3833 18.4067 20.5979 19.228 21.0273 19.844C21.4566 20.4507 22.0306 20.754 22.7493 20.754ZM32.2808 22.168C31.5155 22.168 30.8202 21.986 30.1948 21.622C29.5695 21.258 29.0702 20.726 28.6968 20.026C28.3328 19.3167 28.1508 18.458 28.1508 17.45C28.1508 16.4513 28.3375 15.5973 28.7108 14.888C29.0935 14.1693 29.6022 13.6233 30.2368 13.25C30.8715 12.8673 31.5715 12.676 32.3368 12.676C32.9155 12.676 33.4288 12.7927 33.8768 13.026C34.3248 13.2593 34.6935 13.53 34.9828 13.838L34.1148 14.888C33.8815 14.6453 33.6202 14.454 33.3308 14.314C33.0508 14.1647 32.7335 14.09 32.3788 14.09C31.8842 14.09 31.4408 14.2253 31.0488 14.496C30.6662 14.7573 30.3628 15.1353 30.1388 15.63C29.9242 16.1247 29.8168 16.7173 29.8168 17.408C29.8168 18.4533 30.0455 19.2747 30.5028 19.872C30.9602 20.46 31.5715 20.754 32.3368 20.754C32.7475 20.754 33.1115 20.67 33.4288 20.502C33.7462 20.3247 34.0355 20.096 34.2968 19.816L35.1648 20.838C34.7915 21.2673 34.3622 21.5987 33.8768 21.832C33.4008 22.056 32.8688 22.168 32.2808 22.168ZM38.3362 22V14.216H35.6902V12.844H42.6062V14.216H39.9602V22H38.3362Z" fill="#3F4354"/>
<path d="M27.7658 56C27.8698 54.1627 28.0692 52.516 28.3638 51.06C28.6585 49.604 29.1092 48.2087 29.7158 46.874C30.3225 45.5393 31.1458 44.1527 32.1858 42.714H24.7758V39.49H36.2678V41.83C35.3145 42.9913 34.5432 44.0833 33.9538 45.106C33.3818 46.1287 32.9312 47.1773 32.6018 48.252C32.2898 49.3093 32.0645 50.462 31.9258 51.71C31.7872 52.958 31.6832 54.388 31.6138 56H27.7658Z" fill="#5D95E8"/>
</g>
<defs>
<filter id="filter0_d_4030_752" x="0" y="0" width="61" height="84" filterUnits="userSpaceOnUse" color-interpolation-filters="sRGB">
<feFlood flood-opacity="0" result="BackgroundImageFix"/>
<feColorMatrix in="SourceAlpha" type="matrix" values="0 0 0 0 0 0 0 0 0 0 0 0 0 0 0 0 0 0 127 0" result="hardAlpha"/>
<feMorphology radius="2" operator="dilate" in="SourceAlpha" result="effect1_dropShadow_4030_752"/>
<feOffset dy="6"/>
<feGaussianBlur stdDeviation="3"/>
<feComposite in2="hardAlpha" operator="out"/>
<feColorMatrix type="matrix" values="0 0 0 0 0.278431 0 0 0 0 0.6 0 0 0 0 0.921569 0 0 0 0.04 0"/>
<feBlend mode="normal" in2="BackgroundImageFix" result="effect1_dropShadow_4030_752"/>
<feBlend mode="normal" in="SourceGraphic" in2="effect1_dropShadow_4030_752" result="shape"/>
</filter>
</defs>
</svg>
