<svg width="208" height="20" viewBox="0 0 208 20" fill="none" xmlns="http://www.w3.org/2000/svg">
<path d="M0.924 19.5264V15.6264H10.908L11.818 14.7164V12.5844L10.908 11.6744H3.056L0.17 8.76237V3.25037L3.056 0.364366H15.588V4.26437H5.864L4.954 5.17437V6.86437L5.864 7.77437H13.716L16.602 10.6604V16.6404L13.716 19.5264H0.924ZM17.7637 19.5264L23.3797 0.364366H31.2837L36.8997 19.5264H31.7517L30.7897 15.7044H23.8737L22.9117 19.5264H17.7637ZM24.8357 11.9604H29.8277L27.7997 4.03037H26.8637L24.8357 11.9604ZM40.5742 19.5264L37.6882 16.6404V11.3364H42.5502V14.9244L43.4602 15.8344H47.0222L47.9322 14.9244V0.364366H52.7942V16.6404L49.9082 19.5264H40.5742ZM55.6455 19.5264V15.8604H57.7775L57.7255 4.03037H55.6455V0.364366H64.4855V4.03037H62.3795L62.3275 15.8604H64.4855V19.5264H55.6455ZM67.3434 19.5264V0.364366H72.2054V15.5744H80.9934V19.5264H67.3434ZM85.5786 19.5264L82.6926 16.6404V3.25037L85.5786 0.364366H96.8106L99.6966 3.25037V16.6404L96.8106 19.5264H85.5786ZM88.4906 15.8344H93.9506L94.8606 14.9244V4.96637L93.8986 4.05637H88.4906L87.5546 4.96637V14.9244L88.4906 15.8344Z" fill="#DB133C"/>
<path d="M106.48 19.5264V4.31637H101.124V0.364366H116.698V4.31637H111.342V19.5264H106.48ZM114.832 19.5264L120.448 0.364366H128.352L133.968 19.5264H128.82L127.858 15.7044H120.942L119.98 19.5264H114.832ZM121.904 11.9604H126.896L124.868 4.03037H123.932L121.904 11.9604ZM135.797 19.5264V0.364366H141.101L147.549 11.8564V0.364366H152.073V19.5264H147.549L141.257 8.29437H140.321V19.5264H135.797ZM159.369 19.5264V4.31637H154.013V0.364366H169.587V4.31637H164.231V19.5264H159.369ZM171.547 19.5264V0.364366H184.599L187.511 3.25037V10.1144L185.327 12.2984L188.239 19.5264H183.351L180.829 13.0004H176.409V19.5264H171.547ZM176.409 9.30837H181.869L182.779 8.39837V4.96637L181.869 4.05637H176.409V9.30837ZM188.744 19.5264L194.36 0.364366H202.264L207.88 19.5264H202.732L201.77 15.7044H194.854L193.892 19.5264H188.744ZM195.816 11.9604H200.808L198.78 4.03037H197.844L195.816 11.9604Z" fill="#003D93"/>
</svg>
